<?xml version="1.0" encoding="utf-8"?>
<!-- Generator: Adobe Illustrator 15.0.2, SVG Export Plug-In . SVG Version: 6.00 Build 0)  -->
<!DOCTYPE svg PUBLIC "-//W3C//DTD SVG 1.1//EN" "http://www.w3.org/Graphics/SVG/1.1/DTD/svg11.dtd">
<svg version="1.1" id="Calque_1" xmlns="http://www.w3.org/2000/svg" xmlns:xlink="http://www.w3.org/1999/xlink" x="0px" y="0px"
	 width="36px" height="1152px" viewBox="0 0 36 1152" enable-background="new 0 0 36 1152" xml:space="preserve">
<g>
	<path fill="#F46021" d="M11.488,199.039H3c-0.552,0-1-0.448-1-1s0.448-1,1-1h7.806l1.015-2.59c0.202-0.514,0.78-0.769,1.296-0.566
		c0.514,0.202,0.768,0.782,0.566,1.296l-1.264,3.225C12.269,198.787,11.9,199.039,11.488,199.039z"/>
</g>
<g>
	<path fill="#F46021" d="M13.532,235.039c-0.451,0-0.86-0.307-0.971-0.765l-0.035-0.144l-0.107,0.273
		c-0.15,0.383-0.52,0.635-0.931,0.635H4c-0.552,0-1-0.448-1-1s0.448-1,1-1h6.806l1.015-2.59c0.159-0.407,0.569-0.661,0.999-0.633
		c0.436,0.029,0.801,0.338,0.904,0.762l0.781,3.225c0.13,0.537-0.2,1.077-0.736,1.207C13.689,235.03,13.61,235.039,13.532,235.039z"
		/>
</g>
<g>
	<path fill="#F46021" d="M14.206,273.821c-0.451,0-0.86-0.307-0.971-0.765l-0.709-2.926l-0.107,0.273
		c-0.15,0.383-0.52,0.635-0.931,0.635H5c-0.552,0-1-0.448-1-1s0.448-1,1-1h5.806l1.015-2.589c0.159-0.407,0.569-0.661,0.999-0.633
		c0.436,0.029,0.801,0.338,0.904,0.762l1.455,6.006c0.13,0.537-0.2,1.077-0.736,1.207C14.363,273.813,14.284,273.821,14.206,273.821
		z"/>
</g>
<g>
	<path fill="#F46021" d="M14.207,309.821c-0.002,0-0.004,0-0.006,0c-0.459-0.003-0.858-0.318-0.966-0.765l-0.709-2.926l-0.107,0.273
		c-0.15,0.383-0.52,0.635-0.931,0.635H6c-0.552,0-1-0.448-1-1s0.448-1,1-1h4.806l1.015-2.589c0.159-0.407,0.569-0.66,0.999-0.633
		c0.436,0.029,0.801,0.338,0.904,0.762l0.507,2.094l0.536-2.105c0.136-0.536,0.678-0.86,1.216-0.723
		c0.535,0.136,0.859,0.681,0.723,1.216l-1.529,6.006C15.063,309.511,14.664,309.821,14.207,309.821z"/>
</g>
<g>
	<path fill="#F46021" d="M14.207,345.821c-0.002,0-0.004,0-0.006,0c-0.459-0.003-0.858-0.318-0.966-0.765l-0.709-2.926l-0.107,0.273
		c-0.15,0.383-0.52,0.635-0.931,0.635H7c-0.552,0-1-0.448-1-1s0.448-1,1-1h3.806l1.015-2.589c0.159-0.407,0.569-0.66,0.999-0.633
		c0.436,0.029,0.801,0.338,0.904,0.762l0.507,2.094l2.484-9.758c0.136-0.536,0.679-0.861,1.216-0.723
		c0.535,0.136,0.859,0.681,0.722,1.216l-3.477,13.659C15.063,345.511,14.664,345.821,14.207,345.821z"/>
</g>
<g>
	<path fill="#F46021" d="M14.233,381.821c-0.002,0-0.004,0-0.006,0c-0.459-0.003-0.858-0.318-0.966-0.765l-0.709-2.927l-0.107,0.275
		c-0.15,0.383-0.52,0.635-0.931,0.635H8.027c-0.552,0-1-0.448-1-1s0.448-1,1-1h2.804l1.016-2.589
		c0.16-0.407,0.561-0.658,0.999-0.632c0.436,0.03,0.801,0.338,0.904,0.762l0.507,2.094l2.484-9.758
		c0.115-0.45,0.522-0.773,0.987-0.753c0.464,0.008,0.861,0.334,0.96,0.788l1.662,7.653c0.117,0.54-0.226,1.072-0.766,1.189
		c-0.537,0.116-1.072-0.225-1.189-0.765l-0.762-3.509l-2.431,9.549C15.09,381.511,14.69,381.821,14.233,381.821z"/>
</g>
<g>
	<path fill="#F46021" d="M20.675,417.821c-0.46,0-0.875-0.32-0.977-0.788l-2.065-9.514l-2.431,9.548
		c-0.113,0.443-0.512,0.753-0.969,0.753c-0.002,0-0.004,0-0.006,0c-0.459-0.002-0.858-0.318-0.966-0.765l-0.709-2.927l-0.107,0.275
		c-0.15,0.383-0.52,0.635-0.931,0.635H9.027c-0.552,0-1-0.448-1-1s0.448-1,1-1h1.804l1.016-2.589
		c0.16-0.407,0.561-0.658,0.999-0.632c0.436,0.03,0.801,0.338,0.904,0.762l0.507,2.094l2.484-9.758
		c0.115-0.449,0.522-0.744,0.987-0.753c0.464,0.008,0.861,0.334,0.96,0.788l2.965,13.659c0.117,0.54-0.226,1.072-0.766,1.189
		C20.816,417.814,20.745,417.821,20.675,417.821z"/>
</g>
<g>
	<path fill="#F46021" d="M21.568,493.932L21.568,493.932c-0.472,0-0.878-0.329-0.978-0.788l-2.958-13.624l-2.431,9.548
		c-0.114,0.445-0.536,0.752-0.975,0.753c-0.459-0.002-0.858-0.318-0.966-0.765l-0.709-2.927l-0.107,0.275
		c-0.202,0.514-0.781,0.767-1.296,0.566c-0.514-0.202-0.768-0.782-0.566-1.296l1.265-3.224c0.16-0.406,0.561-0.666,0.999-0.632
		c0.436,0.03,0.801,0.338,0.904,0.762l0.507,2.094l2.484-9.758c0.115-0.45,0.522-0.764,0.987-0.753
		c0.464,0.008,0.861,0.334,0.96,0.788l2.906,13.389c0.208-0.379,0.647-0.594,1.091-0.494c0.539,0.118,0.88,0.651,0.762,1.191
		l-0.902,4.11C22.444,493.605,22.038,493.932,21.568,493.932z"/>
</g>
<g>
	<path fill="#F46021" d="M21.568,529.932L21.568,529.932c-0.472,0-0.878-0.329-0.978-0.788l-2.958-13.624l-2.431,9.548
		c-0.113,0.443-0.512,0.753-0.969,0.753c-0.002,0-0.004,0-0.006,0c-0.459-0.002-0.858-0.318-0.966-0.765l-1.455-6.006
		c-0.13-0.537,0.199-1.077,0.736-1.207c0.535-0.132,1.077,0.199,1.207,0.736l0.507,2.094l2.484-9.758
		c0.115-0.45,0.522-0.773,0.987-0.753c0.464,0.008,0.861,0.334,0.96,0.788l2.885,13.291l1.106-5.042
		c0.118-0.54,0.652-0.883,1.19-0.762c0.54,0.118,0.881,0.651,0.763,1.191l-2.088,9.518
		C22.444,529.605,22.038,529.932,21.568,529.932z"/>
</g>
<g>
	<path fill="#F46021" d="M21.568,565.932L21.568,565.932c-0.472,0-0.878-0.329-0.978-0.788l-2.958-13.625l-1.723,6.767
		c-0.137,0.535-0.684,0.857-1.216,0.723c-0.535-0.136-0.859-0.681-0.723-1.216l2.77-10.877c0.115-0.449,0.522-0.745,0.987-0.753
		c0.464,0.008,0.861,0.334,0.96,0.788l2.885,13.291l1.106-5.042c0.1-0.455,0.5-0.781,0.966-0.786c0.004,0,0.008,0,0.011,0
		c0.462,0,0.864,0.316,0.972,0.766l0.633,2.625c0.13,0.537-0.2,1.077-0.737,1.207c-0.215,0.052-0.431,0.03-0.621-0.05l-1.357,6.185
		C22.444,565.605,22.038,565.932,21.568,565.932z"/>
</g>
<g>
	<path fill="#F46021" d="M14.233,561.821c-0.002,0-0.004,0-0.006,0c-0.459-0.003-0.858-0.318-0.966-0.765l-0.673-2.779
		c-0.13-0.537,0.2-1.077,0.736-1.208c0.342-0.082,0.686,0.021,0.924,0.247c0.241-0.229,0.593-0.334,0.938-0.247
		c0.535,0.136,0.859,0.681,0.723,1.216l-0.708,2.782C15.09,561.511,14.69,561.821,14.233,561.821z"/>
</g>
<g>
	<path fill="#F46021" d="M21.568,601.932L21.568,601.932c-0.472-0.001-0.878-0.328-0.978-0.788l-2.958-13.624l-2.431,9.549
		c-0.136,0.534-0.684,0.86-1.216,0.722c-0.535-0.136-0.859-0.681-0.723-1.216l3.478-13.659c0.115-0.449,0.522-0.754,0.987-0.753
		c0.464,0.009,0.861,0.335,0.96,0.788l2.885,13.291l1.106-5.041c0.1-0.455,0.5-0.781,0.966-0.786c0.004,0,0.008,0,0.011,0
		c0.462,0,0.864,0.316,0.972,0.766l0.448,1.859h1.213c0.553,0,1,0.447,1,1s-0.447,1-1,1h-2c-0.137,0-0.268-0.027-0.387-0.078
		l-1.357,6.185C22.444,601.604,22.038,601.932,21.568,601.932z"/>
</g>
<g>
	<path fill="#F46021" d="M21.568,637.932L21.568,637.932c-0.472-0.001-0.878-0.328-0.978-0.788l-2.958-13.624l-0.783,3.078
		c-0.137,0.534-0.683,0.86-1.216,0.722c-0.535-0.136-0.859-0.681-0.723-1.216l1.83-7.188c0.115-0.449,0.522-0.764,0.987-0.753
		c0.464,0.009,0.861,0.335,0.96,0.788l2.885,13.291l1.106-5.041c0.1-0.455,0.5-0.781,0.966-0.786c0.004,0,0.008,0,0.011,0
		c0.462,0,0.864,0.316,0.972,0.766l0.448,1.859h3.213c0.553,0,1,0.447,1,1s-0.447,1-1,1h-4c-0.137,0-0.268-0.027-0.387-0.078
		l-1.357,6.185C22.444,637.604,22.038,637.932,21.568,637.932z"/>
</g>
<g>
	<path fill="#F46021" d="M21.568,673.932L21.568,673.932c-0.472-0.001-0.878-0.328-0.978-0.788l-3.857-17.77
		c-0.117-0.539,0.225-1.072,0.765-1.189c0.538-0.119,1.072,0.226,1.189,0.766l2.885,13.291l1.106-5.041
		c0.1-0.455,0.5-0.781,0.966-0.786c0.004,0,0.008,0,0.011,0c0.462,0,0.864,0.316,0.972,0.766l0.448,1.859h5.213c0.553,0,1,0.447,1,1
		s-0.447,1-1,1h-6c-0.137,0-0.268-0.027-0.387-0.078l-1.357,6.185C22.444,673.604,22.038,673.932,21.568,673.932z"/>
</g>
<g>
	<path fill="#F46021" d="M21.568,709.932L21.568,709.932c-0.472-0.001-0.878-0.328-0.978-0.788l-2.029-9.354
		c-0.117-0.54,0.226-1.072,0.766-1.189c0.538-0.12,1.072,0.226,1.189,0.766l1.058,4.874l1.105-5.04c0.1-0.455,0.5-0.781,0.966-0.786
		c0.004,0,0.008,0,0.011,0c0.462,0,0.864,0.316,0.972,0.766l0.448,1.859h7.213c0.553,0,1,0.447,1,1s-0.447,1-1,1h-8
		c-0.137,0-0.268-0.027-0.387-0.078l-1.357,6.185C22.444,709.604,22.038,709.932,21.568,709.932z"/>
</g>
<g>
	<path fill="#F46021" d="M21.569,745.932c-0.071,0-0.143-0.008-0.215-0.023c-0.54-0.118-0.881-0.651-0.763-1.19l2.088-9.518
		c0.1-0.455,0.5-0.781,0.966-0.786c0.004,0,0.008,0,0.011,0c0.462,0,0.864,0.316,0.972,0.766l0.448,1.859h8.951c0.553,0,1,0.447,1,1
		s-0.447,1-1,1h-9.738c-0.137,0-0.268-0.027-0.387-0.078l-1.357,6.185C22.442,745.613,22.028,745.932,21.569,745.932z"/>
</g>
<g>
	<path fill="#F46021" d="M34.027,775.039h-9.738c-0.462,0-0.864-0.316-0.972-0.766l-0.633-2.625c-0.13-0.537,0.2-1.077,0.737-1.206
		c0.537-0.133,1.077,0.2,1.206,0.737l0.448,1.859h8.951c0.553,0,1,0.447,1,1S34.58,775.039,34.027,775.039z"/>
</g>
<g>
	<path fill="#F46021" d="M34.027,811.039h-9.738c-0.553,0-1-0.447-1-1s0.447-1,1-1h9.738c0.553,0,1,0.447,1,1
		S34.58,811.039,34.027,811.039z"/>
</g>
<g>
	<path fill="#F46021" d="M34.027,847.039h-8.738c-0.553,0-1-0.447-1-1s0.447-1,1-1h8.738c0.553,0,1,0.447,1,1
		S34.58,847.039,34.027,847.039z"/>
</g>
<g>
	<path fill="#F46021" d="M34.027,883.039h-7.738c-0.553,0-1-0.447-1-1s0.447-1,1-1h7.738c0.553,0,1,0.447,1,1
		S34.58,883.039,34.027,883.039z"/>
</g>
<g>
	<path fill="#F46021" d="M34.027,919.039h-6.738c-0.553,0-1-0.447-1-1s0.447-1,1-1h6.738c0.553,0,1,0.447,1,1
		S34.58,919.039,34.027,919.039z"/>
</g>
<g>
	<path fill="#F46021" d="M34.027,955.039h-5.738c-0.553,0-1-0.447-1-1s0.447-1,1-1h5.738c0.553,0,1,0.447,1,1
		S34.58,955.039,34.027,955.039z"/>
</g>
<g>
	<path fill="#F46021" d="M34.027,991.039h-4.738c-0.553,0-1-0.447-1-1s0.447-1,1-1h4.738c0.553,0,1,0.447,1,1
		S34.58,991.039,34.027,991.039z"/>
</g>
<g>
	<path fill="#F46021" d="M34.027,1027.039h-3.738c-0.553,0-1-0.447-1-1s0.447-1,1-1h3.738c0.553,0,1,0.447,1,1
		S34.58,1027.039,34.027,1027.039z"/>
</g>
<g>
	<path fill="#F46021" d="M34.027,1063.039h-2.738c-0.553,0-1-0.447-1-1s0.447-1,1-1h2.738c0.553,0,1,0.447,1,1
		S34.58,1063.039,34.027,1063.039z"/>
</g>
<g>
	<path fill="#F46021" d="M34.027,1099.039h-1.738c-0.553,0-1-0.447-1-1s0.447-1,1-1h1.738c0.553,0,1,0.447,1,1
		S34.58,1099.039,34.027,1099.039z"/>
</g>
<g>
	<path fill="#F46021" d="M34.027,1135.039h-0.738c-0.553,0-1-0.447-1-1s0.447-1,1-1h0.738c0.553,0,1,0.447,1,1
		S34.58,1135.039,34.027,1135.039z"/>
</g>
<g>
	<path fill="#F46021" d="M21.567,457.932c-0.46,0-0.875-0.32-0.977-0.788l-2.958-13.624l-2.431,9.548
		c-0.114,0.445-0.536,0.722-0.975,0.753c-0.459-0.002-0.858-0.318-0.966-0.765l-0.709-2.927l-0.107,0.275
		c-0.15,0.383-0.52,0.635-0.931,0.635h-1.486c-0.552,0-1-0.448-1-1s0.448-1,1-1h0.804l1.016-2.589
		c0.16-0.407,0.561-0.667,0.999-0.632c0.436,0.03,0.801,0.338,0.904,0.762l0.507,2.094l2.484-9.758
		c0.115-0.45,0.522-0.754,0.987-0.753c0.464,0.008,0.861,0.334,0.96,0.788l3.857,17.77c0.117,0.54-0.226,1.072-0.766,1.189
		C21.709,457.924,21.638,457.932,21.567,457.932z"/>
</g>
<g>
	<path fill="#F46021" d="M5,54.96H2c-0.552,0-1-0.448-1-1s0.448-1,1-1h3c0.552,0,1,0.448,1,1S5.552,54.96,5,54.96z"/>
</g>
<g>
	<path fill="#F46021" d="M7,91.012H2c-0.552,0-1-0.448-1-1s0.448-1,1-1h5c0.552,0,1,0.448,1,1S7.552,91.012,7,91.012z"/>
</g>
<g>
	<path fill="#F46021" d="M9,127.039H2c-0.552,0-1-0.448-1-1s0.448-1,1-1h7c0.552,0,1,0.448,1,1S9.552,127.039,9,127.039z"/>
</g>
<g>
	<path fill="#F46021" d="M11.488,163.039H2c-0.552,0-1-0.448-1-1s0.448-1,1-1h9.488c0.552,0,1,0.448,1,1
		S12.041,163.039,11.488,163.039z"/>
</g>
<g>
	<path fill="#F46021" d="M3,18.907H2c-0.552,0-1-0.448-1-1s0.448-1,1-1h1c0.552,0,1,0.448,1,1S3.552,18.907,3,18.907z"/>
</g>
<rect fill="#607D8B" fill-opacity="0" width="36" height="1152"/>
</svg>
