<?xml version="1.0" encoding="utf-8"?>
<!-- Generator: Adobe Illustrator 15.0.2, SVG Export Plug-In . SVG Version: 6.00 Build 0)  -->
<!DOCTYPE svg PUBLIC "-//W3C//DTD SVG 1.1//EN" "http://www.w3.org/Graphics/SVG/1.1/DTD/svg11.dtd">
<svg version="1.1" id="Calque_1" xmlns="http://www.w3.org/2000/svg" xmlns:xlink="http://www.w3.org/1999/xlink" x="0px" y="0px"
	 width="36px" height="324px" viewBox="0 0 36 324" enable-background="new 0 0 36 324" xml:space="preserve">
<g>
	<g>
		<path fill="#607D8B" d="M34.448,16.498l-1.271-5.36l-4.689,0.502c-0.475-0.806-1.031-1.528-1.641-2.183l1.738-4.213l-4.701-2.89
			l-2.928,3.641c-1.011-0.266-2.059-0.406-3.113-0.41l-1.838-4.087l-5.328,1.438l0.629,4.519c-0.736,0.454-1.406,0.975-2.01,1.548
			L5.244,7.328l-2.886,4.694l3.48,2.817c-0.257,0.964-0.408,1.953-0.424,2.955l-3.972,1.65l1.282,5.365l4.429-0.476
			c0.508,0.892,1.11,1.701,1.802,2.411l-1.633,3.955l4.691,2.887l2.815-3.487c0.953,0.236,1.927,0.369,2.923,0.376l1.664,4.024
			l5.36-1.283l-0.483-4.562c0.826-0.506,1.594-1.083,2.249-1.738l4.11,1.7l2.895-4.706L29.91,20.98
			c0.217-0.896,0.334-1.815,0.36-2.74L34.448,16.498z M21.462,24.833c-3.777,1.943-8.422,0.449-10.361-3.347
			c-1.937-3.784-0.438-8.437,3.341-10.376c3.778-1.943,8.42-0.441,10.36,3.35C26.747,18.243,25.255,22.885,21.462,24.833"/>
	</g>
	<g>
		<path fill="#607D8B" d="M34.455,55.387l-0.323-5.505l-4.705-0.319c-0.326-0.87-0.738-1.682-1.234-2.43l2.439-3.845l-4.121-3.667
			l-3.515,3.076c-0.953-0.438-1.958-0.75-2.997-0.939l-1.097-4.343l-5.495,0.483l-0.169,4.563c-0.804,0.323-1.558,0.715-2.249,1.172
			l-3.696-2.345L3.63,45.411l2.939,3.376c-0.416,0.898-0.735,1.854-0.932,2.837l-4.192,0.933l0.327,5.512l4.441,0.302
			c0.35,0.963,0.801,1.86,1.361,2.68l-2.293,3.611l4.115,3.663l3.379-2.948c0.898,0.398,1.833,0.698,2.81,0.881l0.943,4.248
			l5.503-0.329l0.313-4.576c0.904-0.355,1.758-0.791,2.519-1.32l3.753,2.381l3.663-4.125l-3.071-3.521
			c0.372-0.844,0.652-1.727,0.826-2.637L34.455,55.387z M20.224,61.341c-4.062,1.256-8.375-1.02-9.623-5.092
			c-1.252-4.072,1.025-8.387,5.088-9.646c4.063-1.254,8.373,1.03,9.623,5.097C26.567,55.769,24.293,60.083,20.224,61.341"/>
	</g>
	<g>
		<path fill="#607D8B" d="M33.964,94.231l0.635-5.475l-4.576-1.131c-0.17-0.914-0.437-1.785-0.793-2.61l3.068-3.363l-3.421-4.325
			l-3.993,2.42c-0.863-0.599-1.8-1.08-2.789-1.446l-0.328-4.468l-5.494-0.479l-0.959,4.463c-0.848,0.178-1.659,0.433-2.418,0.764
			l-3.233-2.952l-4.323,3.425l2.311,3.836c-0.566,0.813-1.047,1.698-1.411,2.632l-4.291,0.19l-0.636,5.484l4.322,1.066
			c0.176,1.011,0.465,1.972,0.875,2.877l-2.886,3.158l3.417,4.324l3.838-2.32c0.817,0.551,1.686,1.008,2.615,1.356l0.189,4.348
			l5.478,0.633l1.103-4.453c0.953-0.192,1.869-0.475,2.711-0.864l3.281,2.997l4.322-3.428l-2.413-3.999
			c0.513-0.768,0.943-1.588,1.271-2.455L33.964,94.231z M18.915,97.626c-4.217,0.529-8.072-2.461-8.592-6.687
			c-0.527-4.227,2.465-8.081,6.686-8.617c4.219-0.528,8.066,2.469,8.592,6.692C26.128,93.24,23.14,97.093,18.915,97.626"/>
	</g>
	<g>
		<path fill="#607D8B" d="M32.984,132.949l1.577-5.285l-4.312-1.907c-0.009-0.929-0.12-1.834-0.327-2.707l3.605-2.78l-2.617-4.854
			l-4.354,1.689c-0.748-0.737-1.586-1.374-2.496-1.907l0.453-4.455l-5.328-1.428l-1.719,4.23c-0.867,0.025-1.709,0.138-2.515,0.331
			l-2.672-3.469l-4.853,2.621l1.607,4.182c-0.699,0.703-1.326,1.491-1.846,2.347l-4.26-0.557l-1.578,5.291l4.072,1.802
			c-0.002,1.025,0.114,2.021,0.361,2.982l-3.391,2.609l2.615,4.853l4.183-1.617c0.709,0.683,1.483,1.283,2.34,1.79l-0.567,4.313
			l5.284,1.573l1.859-4.192c0.971-0.022,1.922-0.141,2.817-0.378l2.711,3.521l4.854-2.625l-1.682-4.359
			c0.637-0.665,1.203-1.399,1.679-2.197L32.984,132.949z M17.576,133.679c-4.246-0.211-7.522-3.823-7.301-8.077
			c0.215-4.254,3.832-7.529,8.079-7.324c4.248,0.211,7.518,3.832,7.299,8.08C25.441,130.612,21.828,133.887,17.576,133.679"/>
	</g>
	<g>
		<path fill="#607D8B" d="M31.552,171.453l2.469-4.928l-3.913-2.628c0.151-0.917,0.2-1.828,0.146-2.725l4.034-2.109l-1.733-5.235
			l-4.582,0.908c-0.606-0.857-1.321-1.632-2.125-2.313l1.221-4.311l-5-2.328l-2.428,3.866c-0.856-0.123-1.707-0.161-2.533-0.107
			l-2.029-3.879l-5.232,1.736l0.856,4.396c-0.81,0.571-1.563,1.238-2.226,1.991l-4.097-1.288l-2.473,4.937l3.696,2.48
			c-0.18,1.012-0.236,2.014-0.16,3.004L1.65,164.9l1.733,5.232l4.398-0.867c0.58,0.797,1.238,1.522,1.994,2.168l-1.307,4.151
			l4.93,2.467l2.559-3.807c0.961,0.145,1.918,0.193,2.842,0.114l2.06,3.94l5.235-1.743l-0.898-4.585
			c0.742-0.545,1.428-1.169,2.033-1.869L31.552,171.453z M16.248,169.496c-4.146-0.942-6.745-5.07-5.787-9.22
			c0.949-4.154,5.08-6.75,9.229-5.81c4.146,0.942,6.736,5.077,5.785,9.223C24.527,167.842,20.399,170.441,16.248,169.496"/>
	</g>
	<g>
		<path fill="#607D8B" d="M29.702,209.675l3.288-4.428l-3.397-3.267c0.31-0.876,0.515-1.764,0.617-2.657l4.34-1.377l-0.799-5.458
			l-4.67,0.098c-0.449-0.946-1.02-1.831-1.693-2.646l1.951-4.031l-4.521-3.161l-3.062,3.385c-0.824-0.271-1.654-0.454-2.477-0.549
			l-1.325-4.172l-5.457,0.807l0.082,4.477c-0.897,0.422-1.756,0.946-2.538,1.573l-3.811-1.98l-3.293,4.434l3.209,3.085
			c-0.353,0.964-0.584,1.941-0.68,2.93l-4.08,1.292l0.799,5.452l4.482-0.088c0.434,0.885,0.957,1.714,1.588,2.48l-2.01,3.858
			l4.428,3.287l3.182-3.306c0.921,0.312,1.854,0.524,2.777,0.609l1.344,4.236l5.457-0.81l-0.088-4.67
			c0.828-0.407,1.611-0.904,2.33-1.487L29.702,209.675z M14.972,205.09c-3.918-1.649-5.762-6.167-4.099-10.087
			c1.657-3.927,6.177-5.767,10.099-4.119c3.918,1.651,5.752,6.17,4.095,10.09C23.412,204.897,18.896,206.74,14.972,205.09"/>
	</g>
	<g>
		<path fill="#607D8B" d="M27.496,247.537l4.009-3.787l-2.779-3.81c0.455-0.809,0.812-1.646,1.067-2.508l4.513-0.604l0.162-5.514
			l-4.615-0.712c-0.278-1.014-0.687-1.983-1.209-2.9l2.621-3.633l-3.901-3.898l-3.603,2.804c-0.764-0.407-1.551-0.735-2.343-0.97
			l-0.579-4.339l-5.515-0.155l-0.697,4.421c-0.956,0.261-1.893,0.63-2.772,1.109l-3.408-2.609l-4.012,3.794l2.625,3.595
			c-0.516,0.889-0.912,1.812-1.18,2.767l-4.24,0.564l-0.16,5.508l4.43,0.691c0.273,0.946,0.645,1.854,1.132,2.719l-2.647,3.454
			l3.789,4.005l3.707-2.704c0.854,0.467,1.736,0.838,2.631,1.081l0.588,4.406l5.514,0.152l0.725-4.614
			c0.885-0.258,1.742-0.612,2.552-1.063L27.496,247.537z M13.786,240.466c-3.572-2.307-4.604-7.075-2.284-10.646
			c2.313-3.577,7.082-4.603,10.659-2.303c3.573,2.309,4.594,7.078,2.281,10.648C22.132,241.74,17.364,242.772,13.786,240.466"/>
	</g>
	<g>
		<path fill="#607D8B" d="M25,284.99l4.604-3.035l-2.075-4.232c0.59-0.718,1.087-1.479,1.487-2.282l4.549,0.188l1.115-5.399
			l-4.42-1.506c-0.099-1.046-0.33-2.071-0.687-3.067l3.213-3.12l-3.167-4.518l-4.035,2.136c-0.68-0.536-1.398-0.993-2.139-1.361
			l0.184-4.374l-5.402-1.11l-1.455,4.232c-0.987,0.092-1.975,0.29-2.924,0.612l-2.903-3.164l-4.61,3.038l1.961,3.999
			c-0.66,0.782-1.212,1.623-1.641,2.521l-4.275-0.183l-1.113,5.396l4.242,1.45c0.104,0.979,0.313,1.938,0.643,2.873l-3.208,2.941
			l3.036,4.604l4.119-2.02c0.761,0.606,1.564,1.128,2.402,1.521l-0.186,4.44l5.404,1.107l1.515-4.418
			c0.916-0.101,1.821-0.299,2.696-0.604L25,284.99z M12.728,275.646c-3.118-2.892-3.307-7.767-0.401-10.881
			c2.899-3.123,7.774-3.305,10.897-0.416c3.117,2.892,3.293,7.767,0.396,10.881C20.722,278.35,15.851,278.536,12.728,275.646"/>
	</g>
	<g>
		<path fill="#607D8B" d="M22.288,321.988l5.063-2.188l-1.31-4.529c0.706-0.604,1.326-1.269,1.861-1.989l4.446,0.977l2.037-5.127
			l-4.094-2.25c0.085-1.046,0.035-2.099-0.143-3.139l3.705-2.517l-2.334-4.998l-4.346,1.403c-0.576-0.647-1.203-1.223-1.867-1.714
			l0.938-4.274l-5.127-2.033l-2.168,3.917c-0.986-0.082-1.994-0.056-2.984,0.098l-2.311-3.621l-5.066,2.19l1.236,4.277
			c-0.787,0.659-1.477,1.389-2.053,2.197l-4.178-0.92l-2.035,5.12l3.926,2.165c-0.066,0.981-0.029,1.963,0.134,2.941l-3.669,2.338
			l2.191,5.061l4.408-1.271c0.643,0.729,1.344,1.383,2.102,1.916l-0.954,4.342l5.13,2.03l2.258-4.09
			c0.92,0.059,1.848,0.021,2.762-0.126L22.288,321.988z M11.825,310.653c-2.568-3.387-1.906-8.221,1.495-10.784
			c3.397-2.571,8.229-1.903,10.804,1.482c2.568,3.39,1.896,8.221-1.499,10.784C19.229,314.706,14.399,314.045,11.825,310.653"/>
	</g>
	<rect y="0" fill="#607D8B" fill-opacity="0" width="36" height="324"/>
</g>
</svg>
